<?xml version="1.0" encoding="UTF-8"?>
<svg id="Layer_1" data-name="Layer 1" xmlns="http://www.w3.org/2000/svg" version="1.1" xmlns:xlink="http://www.w3.org/1999/xlink" viewBox="0 0 792 612">
  <defs>
    <style>
      .cls-1 {
        fill: #621246;
      }

      .cls-1, .cls-2, .cls-3, .cls-4, .cls-5 {
        stroke: #231f20;
        stroke-miterlimit: 10;
      }

      .cls-1, .cls-3, .cls-4, .cls-5 {
        stroke-width: 1.31px;
      }

      .cls-6 {
        fill: none;
        stroke-width: 0px;
      }

      .cls-2, .cls-4 {
        fill: url(#QUOICOUBEH);
      }

      .cls-3 {
        fill: #ed0d74;
      }

      .cls-5 {
        fill: #ac1f62;
      }
    </style>
    <pattern id="QUOICOUBEH" x="0" y="0" width="138.18" height="240.93" patternUnits="userSpaceOnUse" viewBox="0 0 138.18 240.93">
      <g>
        <rect class="cls-6" x="0" y="0" width="138.18" height="240.93"/>
        <g>
          <polygon class="cls-3" points="205.97 201.06 138.18 240.73 70.39 201.06 138.18 161.38 205.97 201.06"/>
          <polygon class="cls-5" points="205.97 201.06 205.97 280.41 138.18 320.09 138.18 240.73 205.97 201.06"/>
          <polygon class="cls-1" points="138.18 240.73 138.18 320.09 70.39 280.41 70.39 201.06 138.18 240.73"/>
        </g>
        <g>
          <polygon class="cls-3" points="67.79 201.06 0 240.73 -67.79 201.06 0 161.38 67.79 201.06"/>
          <polygon class="cls-5" points="67.79 201.06 67.79 280.41 0 320.09 0 240.73 67.79 201.06"/>
          <polygon class="cls-1" points="0 240.73 0 320.09 -67.79 280.41 -67.79 201.06 0 240.73"/>
        </g>
        <g>
          <polygon class="cls-3" points="136.88 80.6 69.09 120.27 1.3 80.6 69.09 40.92 136.88 80.6"/>
          <polygon class="cls-5" points="136.88 80.6 136.88 159.95 69.09 199.63 69.09 120.27 136.88 80.6"/>
          <polygon class="cls-1" points="69.09 120.27 69.09 199.63 1.3 159.95 1.3 80.6 69.09 120.27"/>
        </g>
        <g>
          <polygon class="cls-3" points="205.97 -39.87 138.18 -.19 70.39 -39.87 138.18 -79.55 205.97 -39.87"/>
          <polygon class="cls-5" points="205.97 -39.87 205.97 39.48 138.18 79.16 138.18 -.19 205.97 -39.87"/>
          <polygon class="cls-1" points="138.18 -.19 138.18 79.16 70.39 39.48 70.39 -39.87 138.18 -.19"/>
        </g>
        <g>
          <polygon class="cls-3" points="67.79 -39.87 0 -.19 -67.79 -39.87 0 -79.55 67.79 -39.87"/>
          <polygon class="cls-5" points="67.79 -39.87 67.79 39.48 0 79.16 0 -.19 67.79 -39.87"/>
          <polygon class="cls-1" points="0 -.19 0 79.16 -67.79 39.48 -67.79 -39.87 0 -.19"/>
        </g>
      </g>
    </pattern>
  </defs>
  <rect class="cls-4" x="-18.41" y="-11.48" width="829.71" height="637.68"/>
  <rect class="cls-2" x="848.26" y="454.46" width="2.17" height="0"/>
</svg>