<?xml version="1.0" encoding="UTF-8"?>
<svg id="Layer_1" data-name="Layer 1" xmlns="http://www.w3.org/2000/svg" version="1.1" viewBox="0 0 792 612">
  <defs>
    <style>
      .cls-1, .cls-2 {
        isolation: isolate;
      }

      .cls-3 {
        fill: #fff;
        stroke: #231f20;
        stroke-miterlimit: 10;
      }

      .cls-2 {
        fill: #231f20;
        font-family: MyriadPro-Regular, 'Myriad Pro';
        font-size: 60px;
      }
    </style>
  </defs>
  <g class="cls-1">
    <text class="cls-2" transform="translate(501.5 250.3)"><tspan x="0" y="0">CREATE </tspan></text>
    <text class="cls-2" transform="translate(501.5 322.3)"><tspan x="0" y="0">WITH </tspan></text>
    <text class="cls-2" transform="translate(501.5 394.3)"><tspan x="0" y="0">ADOBE</tspan></text>
  </g>
  <path class="cls-3" d="M256,338c2-1,3-4,5-4,24-2,47-5,72-8,2-1,3-4,5-5,28-5,56-12,78-30,1-1,4,1,5,0,2-3,5-6,7-7,5.6-1.6,8-4.5,10.8-6.6-4.7-40.2-23.2-76.2-50.6-103.1-1.3.4-2.5,1-3.2,1.7.7-.7,1.9-1.4,3.2-1.7-31.1-30.5-73.7-49.3-120.7-49.3-69.3,0-129.1,40.9-156.5,99.9,5.5,1.9,11.4,2.8,16,4.1,38,11,76,5,116-3,2-1,3-4,5-5,12-5,27-8,38-12,12-4,25-5,37-9,8-3,16-6,25-8,2,0,6-3,8-3,12-1,21-5,30-13-9,8-18,12-30,13-2,0-6,3-8,3-9,2-17,5-25,8-12,4-25,5-37,9-11,4-26,7-38,12-2,1-3,4-5,5-40,8-78,14-116,3-4.6-1.3-10.5-2.2-16-4.1-10.3,22.1-16,46.7-16,72.6s2.1,31.1,6.1,45.6c51.3.8,102.6.6,154.9-5.1Z"/>
  <path class="cls-3" d="M428,284c-2,1-5,4-7,7-1,1-4-1-5,0-22,18-50,25-78,30-2,1-3,4-5,5-25,3-48,6-72,8-2,0-3,3-5,4-52.2,5.7-103.6,6-154.9,5.1,20,73.1,86.9,126.9,166.4,126.9s172.5-77.2,172.5-172.5-.4-13.5-1.2-20.1c-2.8,2.1-5.2,5-10.8,6.6Z"/>
</svg>